# xmcd CD database file
#
# Track frame offsets:
#	182
#	27992
#	44477
#	68660
#	91730
#	113427
#	127472
#	154925
#	176027
#	194802
#	211720
#
# Disc length: 3033 seconds
#
# Revision: 5
# Processed by: cddbd v1.5.2PL0 Copyright (c) Steve Scherf et al.
# Submitted via: CDex 1.70beta2
#
DISCID=9b0bd70b
DTITLE=J.B. Hutto - Pet Cream Man - The Blues Collection 37
DYEAR=1996
DGENRE=Blues
TTITLE0=Please Help
TTITLE1=Lulubelle's Here
TTITLE2=Tell Me Mama
TTITLE3=Angel Face
TTITLE4=I Feel So Good
TTITLE5=Leave Your Love In Greater Hands
TTITLE6=Lone Wolf
TTITLE7=That's The Truth
TTITLE8=My Heart Is Achin' To Love You
TTITLE9=Look At The Yonder Wall
TTITLE10=Combination Boogie
EXTD=YEAR: 1996
EXTT0=
EXTT1=
EXTT2=
EXTT3=
EXTT4=
EXTT5=
EXTT6=
EXTT7=
EXTT8=
EXTT9=
EXTT10=
PLAYORDER=
